<svg version="1.0" xmlns="http://www.w3.org/2000/svg" width="346.667" height="346.667" viewBox="0 0 260 260"><path d="M0 130v130h260V0H0v130zm224-90.3c0 .5-8 20-17.7 43.5L188.5 126H148l.9-2.3c.5-1.2 8.2-19.8 17.1-41.2 8.9-21.5 16.6-40 17.1-41.3.8-2.2 1-2.2 20.9-2.2 11 0 20 .3 20 .7zm-150.2 43c.6 1 5.6 13.7 11.3 28.2 5.7 14.5 10.5 26 10.6 25.5.2-.5 5.2-13.1 11.1-27.9l10.8-27 17.7-.3c12-.2 17.7.1 17.7.8 0 .8-42.2 102.9-52.2 126.2l-2 4.8H80.9c-9.9 0-17.9-.2-17.9-.5 0-.2 3.2-7.8 7-16.9 3.9-9.1 7-17 7-17.7 0-.6-9-22.2-20-47.9-11-25.8-20-47.4-20-48 0-.6 6.4-1 18-1 16.1 0 18 .2 18.8 1.7zm92.3 52.8c12.6 4.5 18.2 19.2 12 31.3-3.7 7.2-11.9 12.1-20.2 12.2-6.4 0-14.6-4.3-18.3-9.7-5.4-7.8-4.7-19.7 1.7-26.9 6.5-7.4 15.9-10 24.8-6.9z"/></svg>